#!OML:ASF H:\BabyWalks\Project 1\Capture day 1\Session 1\baby.ASF
:FULLY-SPECIFIED
:DEGREES
996
root 43.0647 17.4787 0.33979 -370.935 77.9159 -380.938
lowerback 20.4151 1.16989 1.12278
upperback 7.22119 2.10791 -0.668442
thorax -3.52363 1.22416 -1.84117
lowerneck 3.52179 4.63252 7.1063
upperneck -12.6039 5.87516 -9.78522
head -3.79163 3.19338 -4.40798
rclavicle -3.77691e-014 -1.55052e-014
rhumerus -40.3506 4.03424 -82.3347
rradius 48.9674
rwrist -1.89401
rhand -9.36401 -15.3781
rfingers 7.12502
rthumb 16.596 -44.6885
lclavicle -3.77691e-014 -1.55052e-014
lhumerus -41.123 -34.8142 82.2998
lradius 54.7422
lwrist 4.64104
lhand 6.50573 10.4351
lfingers 7.12502
lthumb 31.8051 37.68
rfemur -2.97746 16.2448 18.2301
rtibia 16.3468
rfoot -18.3535 12.4234
rtoes 1.94135
lfemur -29.9511 0.322058 -12.6323
ltibia 37.9002
lfoot -19.4753 -6.83168
ltoes -2.90138
997
root 43.0594 17.479 0.341424 -371.028 77.8757 -380.997
lowerback 20.3918 1.18238 1.10992
upperback 7.20613 2.11981 -0.672854
thorax -3.52771 1.22919 -1.84079
lowerneck 3.5142 4.61338 7.11529
upperneck -12.58 5.85061 -9.7778
head -3.78531 3.17974 -4.40558
rclavicle -2.34566e-014 -4.77083e-015
rhumerus -40.3499 3.95184 -82.2724
rradius 48.8648
rwrist -1.77919
rhand -9.43773 -15.4431
rfingers 7.12502
rthumb 16.525 -44.7594
lclavicle -2.34566e-014 -4.77083e-015
lhumerus -40.9961 -34.3458 82.047
lradius 54.7087
lwrist 4.90691
lhand 6.29281 10.6361
lfingers 7.12502
lthumb 31.6023 37.921
rfemur -2.95608 16.2494 18.2689
rtibia 16.3296
rfoot -18.3645 12.398
rtoes 1.85774
lfemur -29.9029 0.305339 -12.5872
ltibia 37.8719
lfoot -19.4646 -6.77984
ltoes -2.89855
998
root 43.0541 17.4794 0.343321 -371.133 77.8374 -381.067
lowerback 20.3649 1.19416 1.10126
upperback 7.18998 2.13144 -0.677606
thorax -3.53095 1.23409 -1.84298
lowerneck 3.50369 4.59536 7.12067
upperneck -12.5575 5.82773 -9.76531
head -3.77909 3.16681 -4.40103
rclavicle 6.36111e-015 -8.74653e-015
rhumerus -40.3485 3.87458 -82.2132
rradius 48.7719
rwrist -1.67881
rhand -9.51556 -15.5029
rfingers 7.12502
rthumb 16.4501 -44.8255
lclavicle 6.36111e-015 -8.74653e-015
lhumerus -40.8476 -33.8581 81.7764
lradius 54.6817
lwrist 5.183
lhand 6.01903 10.85
lfingers 7.12502
lthumb 31.3415 38.1859
rfemur -2.93244 16.2623 18.3143
rtibia 16.3093
rfoot -18.3818 12.3424
rtoes 1.74194
lfemur -29.8533 0.291394 -12.54
ltibia 37.8408
lfoot -19.4579 -6.73174
ltoes -2.91332
999
root 43.0488 17.4799 0.345434 -371.233 77.8012 -381.13
lowerback 20.3387 1.2054 1.09424
upperback 7.17056 2.14241 -0.684574
thorax -3.53795 1.23856 -1.84841
lowerneck 3.49323 4.57914 7.12484
upperneck -12.5341 5.8077 -9.74821
head -3.77256 3.15506 -4.39489
rclavicle 2.14687e-014 -3.97569e-015
rhumerus -40.3523 3.80361 -82.1586
rradius 48.6908
rwrist -1.59642
rhand -9.60217 -15.5523
rfingers 7.12502
rthumb 16.3667 -44.8817
lclavicle 2.14687e-014 -3.97569e-015
lhumerus -40.6865 -33.3621 81.4958
lradius 54.66
lwrist 5.45243
lhand 5.69653 11.0708
lfingers 7.12502
lthumb 31.0341 38.4658
rfemur -2.90439 16.2827 18.362
rtibia 16.2871
rfoot -18.4045 12.2641
rtoes 1.61542
lfemur -29.7987 0.278852 -12.4952
ltibia 37.8058
lfoot -19.4523 -6.68699
ltoes -2.93321
1000
root 43.0433 17.4805 0.347832 -371.323 77.7683 -381.182
lowerback 20.3118 1.21634 1.08897
upperback 7.14804 2.15297 -0.694562
thorax -3.54772 1.24276 -1.858
lowerneck 3.48391 4.56459 7.12986
upperneck -12.5088 5.79046 -9.72733
head -3.76557 3.14445 -4.38778
rclavicle 4.09496e-014 -1.39149e-014
rhumerus -40.3603 3.74003 -82.1104
rradius 48.6202
rwrist -1.53367
rhand -9.68789 -15.5941
rfingers 7.12502
rthumb 16.2842 -44.9303
lclavicle 4.09496e-014 -1.39149e-014
lhumerus -40.5164 -32.8598 81.2082
lradius 54.6469
lwrist 5.68944
lhand 5.33822 11.2914
lfingers 7.12502
lthumb 30.6925 38.7511
rfemur -2.87424 16.315 18.4114
rtibia 16.2659
rfoot -18.4312 12.1628
rtoes 1.49006
lfemur -29.7408 0.268754 -12.4535
ltibia 37.7665
lfoot -19.4486 -6.64739
ltoes -2.96379
1001
root 43.0379 17.4813 0.350554 -371.394 77.7397 -381.212
lowerback 20.2824 1.2262 1.08227
upperback 7.1249 2.16165 -0.707787
thorax -3.55688 1.24605 -1.86973
lowerneck 3.47429 4.55266 7.1365
upperneck -12.482 5.77705 -9.70546
head -3.75768 3.13558 -4.38065
rclavicle -7.95139e-015 -1.51076e-014
rhumerus -40.3706 3.68617 -82.0677
rradius 48.565
rwrist -1.49201
rhand -9.77109 -15.6309
rfingers 7.12502
rthumb 16.2041 -44.9737
lclavicle -7.95139e-015 -1.51076e-014
lhumerus -40.3446 -32.3801 80.9242
lradius 54.6408
lwrist 5.9017
lhand 4.95374 11.5085
lfingers 7.12502
lthumb 30.3258 39.0363
rfemur -2.84025 16.3601 18.4599
rtibia 16.2457
rfoot -18.4592 12.0467
rtoes 1.39545
lfemur -29.6776 0.261283 -12.4181
ltibia 37.7226
lfoot -19.4457 -6.61358
ltoes -3.00187
1002
root 43.0323 17.4821 0.353633 -371.452 77.7148 -381.224
lowerback 20.2502 1.23617 1.07624
upperback 7.1015 2.17039 -0.72451
thorax -3.56465 1.24942 -1.88547
lowerneck 3.46351 4.54127 7.14065
upperneck -12.4506 5.76482 -9.67773
head -3.74845 3.12701 -4.37117
rclavicle -1.78906e-014 -1.03368e-014
rhumerus -40.3882 3.63321 -82.0313
rradius 48.5261
rwrist -1.46025
rhand -9.83739 -15.6592
rfingers 7.12502
rthumb 16.1402 -45.0072
lclavicle -1.78906e-014 -1.03368e-014
lhumerus -40.1737 -31.9421 80.6484
lradius 54.6411
lwrist 6.08467
lhand 4.56108 11.7094
lfingers 7.12502
lthumb 29.9512 39.3055
rfemur -2.80169 16.4165 18.5088
rtibia 16.2263
rfoot -18.4872 11.918
rtoes 1.35128
lfemur -29.6094 0.256965 -12.3874
ltibia 37.6745
lfoot -19.4418 -6.58813
ltoes -3.04161
1003
root 43.0266 17.4828 0.357006 -371.508 77.6955 -381.231
lowerback 20.2174 1.24552 1.07443
upperback 7.07782 2.17904 -0.74381
thorax -3.57217 1.25283 -1.90631
lowerneck 3.44925 4.53032 7.15021
upperneck -12.4137 5.75311 -9.65451
head -3.73658 3.11858 -4.36369
rclavicle -1.94809e-014 2.22639e-014
rhumerus -40.4121 3.58593 -82.0004
rradius 48.5026
rwrist -1.44204
rhand -9.88864 -15.6828
rfingers 7.12502
rthumb 16.0909 -45.0348
lclavicle -1.94809e-014 2.22639e-014
lhumerus -40.0022 -31.5257 80.3767
lradius 54.6506
lwrist 6.20341
lhand 4.19063 11.8836
lfingers 7.12502
lthumb 29.5977 39.5429
rfemur -2.75586 16.478 18.5602
rtibia 16.2058
rfoot -18.5147 11.7827
rtoes 1.35417
lfemur -29.5375 0.257175 -12.3602
ltibia 37.6234
lfoot -19.4354 -6.57336
ltoes -3.07648
1004
root 43.0206 17.4834 0.360708 -371.56 77.6823 -381.23
lowerback 20.1837 1.25392 1.07403
upperback 7.05311 2.18659 -0.764875
thorax -3.58023 1.25571 -1.92957
lowerneck 3.43573 4.51981 7.15578
upperneck -12.374 5.74218 -9.62746
head -3.72422 3.11047 -4.35435
rclavicle 1.11319e-014 2.94201e-014
rhumerus -40.4444 3.54636 -81.9756
rradius 48.4955
rwrist -1.44035
rhand -9.93048 -15.6991
rfingers 7.12502
rthumb 16.0506 -45.0543
lclavicle 1.11319e-014 2.94201e-014
lhumerus -39.8389 -31.1471 80.117
lradius 54.6704
lwrist 6.27418
lhand 3.85859 12.0267
lfingers 7.12502
lthumb 29.2807 39.7419
rfemur -2.70206 16.5405 18.613
rtibia 16.1818
rfoot -18.545 11.6398
rtoes 1.37389
lfemur -29.4634 0.259013 -12.3366
ltibia 37.5711
lfoot -19.4277 -6.56688
ltoes -3.10664
1005
root 43.0144 17.4838 0.364663 -371.612 77.6793 -381.224
lowerback 20.1469 1.25924 1.07652
upperback 7.0301 2.19076 -0.787186
thorax -3.5848 1.25707 -1.95488
lowerneck 3.42255 4.50797 7.15965
upperneck -12.335 5.72919 -9.60158
head -3.71229 3.10152 -4.34508
rclavicle 0 3.57812e-015
rhumerus -40.4807 3.51397 -81.9565
rradius 48.5035
rwrist -1.45218
rhand -9.96178 -15.7113
rfingers 7.12502
rthumb 16.0205 -45.069
lclavicle 0 3.57812e-015
lhumerus -39.6816 -30.8123 79.8696
lradius 54.7002
lwrist 6.31147
lhand 3.56895 12.1335
lfingers 7.12502
lthumb 29.0041 39.8966
rfemur -2.63709 16.5956 18.6668
rtibia 16.1524
rfoot -18.5793 11.49
rtoes 1.3952
lfemur -29.3885 0.259254 -12.3174
ltibia 37.5189
lfoot -19.4174 -6.57052
ltoes -3.12666
